<svg xmlns:xlink="http://www.w3.org/1999/xlink" xmlns="http://www.w3.org/2000/svg" fill="none" viewBox="0 0 63 63" class="home_flame__lfj05 home_flame-4__yl7EF" width="64"  height="64" ><circle cx="31.5" cy="31.5" r="31" stroke="#000000" fill="none"></circle><g clip-path="url(#flame-capsule-small_svg__clip0)" fill="none"><path fill="#000" d="M41.22 23.24c-.086-.304-.506-.284-.55.029-.263 1.835 1.249 6.176.709 8.184a5.616 5.616 0 00-.011.04c-.117.43-.734.346-.739-.101-.018-1.735-.462-3.633-1.414-4.795-3.587-4.377.244-7.607.102-8.654a.211.211 0 00-.284-.177c-.005.002-.009.003-.01.005-.23.13-.444.287-.658.44-1.435 1.026-2.75 2.26-3.51 3.923-.436.956-.551 2.023-.8 3.038-.096.386-.205.768-.333 1.144-.143.422-.343.846-.66 1.159-.142.14-.315.243-.507.281-.504.1-.771-.26-.867-.683-.267-1.178-.07-2.368.03-3.554.402-4.774-4.658-5.218-2.81-12.18.49-1.844-6.13 4.219-3.9 9.494.437 1.032.396 2.016-.098 3.01-.527 1.06-1.176 2.018-1.496 3.178-.114.417-.179.839-.23 1.267-.065.551.09 1.38-.617 1.523-.294.06-.7.027-.944-.17-.19-.155-.295-.396-.357-.637-.293-1.126-.257-2.265-.118-3.414.123-1.012.208-2.918-.814-1.016-3.296 6.13-3.178 13.763.845 19.513 1.547 2.211 3.51 3.62 6.077 4.264 5.222 1.31 11.465.913 14.752-3.702 1.256-1.763 2.01-3.916 2.503-6.025.63-2.694.75-5.253-.236-7.867-.956-2.537-2.308-4.895-3.055-7.517z"></path></g><defs><clipPath id="flame-capsule-small_svg__clip0"><path fill="#fff" d="M0 0h27v38H0z" transform="translate(18 11)"></path></clipPath></defs></svg>