<?xml version="1.0" encoding="utf-8"?>
<!-- Generator: Adobe Illustrator 28.0.0, SVG Export Plug-In . SVG Version: 6.00 Build 0)  -->
<svg version="1.1" id="Layer_1" xmlns="http://www.w3.org/2000/svg" xmlns:xlink="http://www.w3.org/1999/xlink" x="0px" y="0px"
	 viewBox="0 0 451 676" style="enable-background:new 0 0 451 676;" xml:space="preserve">
<style type="text/css">
	.st0{fill:#1C4ED5;stroke:#000000;stroke-width:1.2498;stroke-miterlimit:4.1281;}
</style>
<path class="st0" d="M450,674.4H1.4L1,141.3c0,0,23.4-6.2,26.5-17c10.7-37.2,54.1-26.9,54.1-26.9c-2.1-9.3,7.3-19.7,15.5-25.7
	c6.4-4.7,14-8.2,22.4-10.2c11.4-2.8,24.8-3.5,36.4-0.8c1.6,0.4,3.1,0.8,4.6,1.3c0.8,0.3,2.9,0.9,3.1,1.6
	c-6.9-18.6,6.6-35.3,32.7-39.6c26.1-4.3,28.3-22.4,28.3-22.4s2.2,18.2,28.3,22.4c26.1,4.3,39.5,21,32.7,39.6
	c0.3-0.7,2.4-1.4,3.1-1.6c1.5-0.5,3.1-0.9,4.6-1.3c11.6-2.7,24.9-2,36.4,0.8c8.3,2.1,16,5.6,22.4,10.2c8.2,6,17.7,16.4,15.5,25.7
	c0,0,43.4-10.3,54.1,26.9c3.1,10.8,27.8,17.3,27.8,17.3L450,674.4z"/>
</svg>
